HIERARCHY
ROOT Hips
{
	OFFSET 0.000000 0.000000 0.000000
	CHANNELS 6 Xposition Yposition Zposition Yrotation Xrotation Zrotation
	JOINT Chest
	{
		OFFSET 0.000000 -0.009281 11.569106
		CHANNELS 3 Yrotation Xrotation Zrotation
		JOINT Chest2
		{
			OFFSET -0.000000 0.016865 9.269641
			CHANNELS 3 Yrotation Xrotation Zrotation
			JOINT Chest3
			{
				OFFSET -0.000000 0.000001 8.374491
				CHANNELS 3 Yrotation Xrotation Zrotation
				JOINT Chest4
				{
					OFFSET -0.000000 0.000001 8.374493
					CHANNELS 3 Yrotation Xrotation Zrotation
					JOINT Neck
					{
						OFFSET -0.000000 0.000002 12.152554
						CHANNELS 3 Yrotation Xrotation Zrotation
						JOINT Head
						{
							OFFSET -0.000000 0.040101 7.802319
							CHANNELS 3 Yrotation Xrotation Zrotation
							End Site
							{
								OFFSET -0.000000 0.020947 14.853096
							}
						}
					}
					JOINT RightCollar
					{
						OFFSET 2.894404 0.000001 6.791374
						CHANNELS 3 Yrotation Xrotation Zrotation
						JOINT RightShoulder
						{
							OFFSET 13.574684 0.000001 0.000000
							CHANNELS 3 Yrotation Xrotation Zrotation
							JOINT RightElbow
							{
								OFFSET 23.923903 0.000002 0.000000
								CHANNELS 3 Yrotation Xrotation Zrotation
								JOINT RightWrist
								{
									OFFSET 19.846718 0.012767 0.000000
									CHANNELS 3 Yrotation Xrotation Zrotation
									End Site
									{
										OFFSET 14.973145 0.000001 0.000000
									}
								}
							}
						}
					}
					JOINT LeftCollar
					{
						OFFSET -2.894404 0.000001 6.791374
						CHANNELS 3 Yrotation Xrotation Zrotation
						JOINT LeftShoulder
						{
							OFFSET -13.574684 -0.000001 0.000000
							CHANNELS 3 Yrotation Xrotation Zrotation
							JOINT LeftElbow
							{
								OFFSET -23.923903 -0.000002 0.000000
								CHANNELS 3 Yrotation Xrotation Zrotation
								JOINT LeftWrist
								{
									OFFSET -19.846718 0.012763 0.000000
									CHANNELS 3 Yrotation Xrotation Zrotation
									End Site
									{
										OFFSET -14.973145 -0.000001 0.000000
									}
								}
							}
						}
					}
				}
			}
		}
	}
	JOINT RightHip
	{
		OFFSET 9.469263 0.004643 0.045487
		CHANNELS 3 Yrotation Xrotation Zrotation
		JOINT RightKnee
		{
			OFFSET 0.000000 0.002661 -40.478676
			CHANNELS 3 Yrotation Xrotation Zrotation
			JOINT RightAnkle
			{
				OFFSET 0.000000 0.049106 -35.224068
				CHANNELS 3 Yrotation Xrotation Zrotation
				JOINT RightToe
				{
					OFFSET -0.000001 12.539529 -6.151390
					CHANNELS 3 Yrotation Xrotation Zrotation
					End Site
					{
						OFFSET -0.000001 5.044994 -1.291870
					}
				}
			}
		}
	}
	JOINT LeftHip
	{
		OFFSET -9.469263 0.004641 0.045487
		CHANNELS 3 Yrotation Xrotation Zrotation
		JOINT LeftKnee
		{
			OFFSET 0.000000 0.002661 -40.478676
			CHANNELS 3 Yrotation Xrotation Zrotation
			JOINT LeftAnkle
			{
				OFFSET 0.000000 0.049106 -35.224068
				CHANNELS 3 Yrotation Xrotation Zrotation
				JOINT LeftToe
				{
					OFFSET -0.000001 12.539529 -6.151390
					CHANNELS 3 Yrotation Xrotation Zrotation
					End Site
					{
						OFFSET -0.000001 5.044994 -1.291870
					}
				}
			}
		}
	}
}
MOTION
Frames: 12
Frame Time: 0.016667
12.070178 6.314980 82.983315 -7.368206 -0.906613 -104.306667 2.843220 -2.778520 6.698516 1.304377 -1.191690 2.981629 1.304378 -1.191690 2.981629 0.984091 -0.887435 2.238696 -1.593976 -14.773211 6.457796 -0.528136 8.631164 11.502897 3.942257 5.559316 -10.246990 70.280502 -3.700547 40.119698 42.356797 -0.006997 47.315818 29.301996 7.397990 -17.779910 -9.059639 1.193288 -22.492161 -66.400825 40.085270 -70.657153 -15.415390 32.943508 -36.829271 -37.506218 12.643479 11.728320 -1.373325 -12.049840 -5.831123 1.059174 -0.912927 -3.867711 -0.060363 5.476998 1.707430 -0.006372 -0.008982 -0.013603 -1.029270 -10.884151 -2.761763 0.630710 -0.160012 -4.740741 -2.282349 3.357602 0.933050 -0.001426 -0.021382 0.014655 
12.089181 6.306552 82.980865 -7.345177 -0.892529 -104.262715 2.853297 -2.778205 6.695549 1.309244 -1.191157 2.980239 1.309244 -1.191156 2.980241 0.987735 -0.887014 2.237664 -1.610342 -14.735081 6.444401 -0.560699 8.703922 11.473528 3.900915 5.613387 -10.261745 70.095848 -3.381434 40.799640 40.540878 -1.984550 47.469425 29.737599 5.527451 -18.906143 -9.052471 1.303421 -22.419734 -65.375579 40.250930 -70.182297 -14.651845 31.651056 -36.930242 -36.866410 9.495213 13.802991 -1.369719 -12.061281 -5.846323 1.064141 -0.879798 -3.873440 -0.064330 5.482036 1.681165 -0.007157 -0.008970 -0.013993 -1.033306 -10.873118 -2.772584 0.645725 -0.152715 -4.764220 -2.290664 3.366238 0.932566 -0.000764 -0.023845 0.014955 
12.109060 6.298331 82.977997 -7.319610 -0.880204 -104.214719 2.857395 -2.768516 6.690073 1.311140 -1.186510 2.977758 1.311141 -1.186509 2.977757 0.989130 -0.883524 2.235796 -1.617641 -14.699137 6.432822 -0.575803 8.771775 11.450901 3.864043 5.604164 -10.299576 69.908701 -3.097056 41.496432 38.691413 -4.078168 47.854669 30.137622 3.838521 -20.031447 -9.050216 1.407036 -22.341564 -64.420459 40.403765 -69.727687 -13.985915 30.063136 -37.314638 -36.451319 6.224696 15.854529 -1.360628 -12.075743 -5.857216 1.063542 -0.837273 -3.883945 -0.067142 5.482895 1.651200 -0.006023 -0.009250 -0.013433 -1.034571 -10.861112 -2.769449 0.660607 -0.143727 -4.804976 -2.296698 3.375113 0.930246 -0.001690 -0.026980 0.014912 
12.129421 6.289793 82.975189 -7.294532 -0.867498 -104.162892 2.851203 -2.760955 6.686281 1.308293 -1.182956 2.975674 1.308292 -1.182956 2.975674 0.986974 -0.880877 2.234220 -1.611507 -14.655723 6.419327 -0.565887 8.852466 11.430204 3.839397 5.556909 -10.349862 69.686767 -2.876923 42.202779 36.887458 -6.129666 48.542028 30.346961 2.040858 -20.959037 -9.034901 1.488472 -22.273343 -63.586746 40.548886 -69.352498 -13.302568 28.172999 -37.896400 -36.377448 3.091109 17.827733 -1.350610 -12.093313 -5.868881 1.064102 -0.790818 -3.900572 -0.073105 5.483366 1.625674 -0.003480 -0.010152 -0.012236 -1.034787 -10.847982 -2.765587 0.674360 -0.138216 -4.846701 -2.301177 3.385598 0.919674 -0.003577 -0.029831 0.014384 
12.150327 6.280579 82.972801 -7.272801 -0.855083 -104.111050 2.836327 -2.756080 6.689799 1.301576 -1.180914 2.976902 1.301576 -1.180914 2.976903 0.981927 -0.879375 2.235125 -1.595417 -14.610661 6.399944 -0.539431 8.935726 11.402360 3.822620 5.523992 -10.409637 69.494197 -2.691596 42.885795 34.896481 -8.272009 49.379027 30.482339 0.157760 -21.782817 -9.010618 1.528916 -22.249923 -62.920201 40.763993 -69.116808 -12.522766 26.053256 -38.482495 -36.552434 0.344272 19.654240 -1.336293 -12.114416 -5.878638 1.054966 -0.743614 -3.923864 -0.075133 5.482053 1.602675 -0.000210 -0.009751 -0.010887 -1.033195 -10.835151 -2.775510 0.680320 -0.139296 -4.879847 -2.300035 3.399700 0.922799 -0.005045 -0.032406 0.013336 
12.172759 6.272659 82.970833 -7.255150 -0.843323 -104.055145 2.818937 -2.746378 6.696750 1.294114 -1.176830 2.979998 1.294114 -1.176831 2.979998 0.976319 -0.876342 2.237424 -1.572303 -14.577854 6.374564 -0.503095 8.996046 11.365336 3.799801 5.462326 -10.482915 69.332533 -2.559150 43.589707 32.407653 -10.519167 50.478435 30.744075 -1.397281 -22.495979 -8.977097 1.564493 -22.220000 -62.386265 40.965463 -69.009930 -11.727934 23.936973 -39.061548 -36.564595 -2.126152 21.415734 -1.323856 -12.142414 -5.902728 1.050291 -0.695081 -3.938304 -0.079995 5.481506 1.577219 0.003333 -0.009128 -0.009863 -1.030673 -10.829596 -2.802231 0.687511 -0.135482 -4.904548 -2.299282 3.409667 0.912780 -0.007277 -0.032752 0.012052 
12.195119 6.264661 82.969109 -7.235978 -0.831391 -104.000026 2.807408 -2.729425 6.708249 1.289041 -1.169631 2.985262 1.289040 -1.169631 2.985262 0.972487 -0.870956 2.241348 -1.546347 -14.565155 6.344069 -0.465020 9.019170 11.318748 3.769778 5.386328 -10.543097 69.188682 -2.402464 44.273723 29.616298 -12.873623 51.848137 30.868254 -3.035677 -23.157297 -8.957783 1.647852 -22.167568 -61.892592 41.048631 -68.915803 -10.983146 21.965089 -39.672874 -36.453584 -4.990366 23.003097 -1.311381 -12.167763 -5.937627 1.043516 -0.647972 -3.943465 -0.082732 5.480304 1.559592 0.006201 -0.008021 -0.008976 -1.032873 -10.821065 -2.840834 0.698548 -0.134125 -4.908150 -2.299095 3.421314 0.915420 -0.008459 -0.033746 0.011278 
12.216945 6.256962 82.967628 -7.216301 -0.820498 -103.950534 2.804800 -2.709761 6.719884 1.287665 -1.161039 2.990187 1.287665 -1.161040 2.990186 0.971425 -0.864509 2.245021 -1.524872 -14.571853 6.317044 -0.435599 9.006535 11.275928 3.725466 5.310201 -10.591058 69.047701 -2.248728 44.924333 26.567354 -15.196698 53.457357 31.057799 -4.114036 -23.676006 -8.944676 1.775457 -22.080617 -61.433583 41.029681 -68.785162 -10.202075 19.995736 -40.384392 -36.378694 -8.093293 24.728671 -1.302188 -12.187427 -5.963173 1.040828 -0.610130 -3.948733 -0.085689 5.481304 1.548011 0.007450 -0.005681 -0.008836 -1.030467 -10.814203 -2.862288 0.707133 -0.129572 -4.914157 -2.301971 3.430103 0.890143 -0.009014 -0.033195 0.011023 
12.237251 6.249463 82.966492 -7.197638 -0.808696 -103.904881 2.805650 -2.690490 6.727216 1.287788 -1.152581 2.993161 1.287788 -1.152582 2.993161 0.971483 -0.858159 2.247236 -1.506833 -14.586844 6.296468 -0.410831 8.978448 11.243451 3.670047 5.235131 -10.632298 68.883619 -2.177191 45.537954 23.775912 -17.167250 55.227346 31.237576 -5.062838 -24.098512 -8.924040 1.882652 -21.994377 -60.932480 40.972515 -68.603219 -9.199546 17.900256 -41.115598 -36.463300 -11.311294 26.512674 -1.298283 -12.198691 -5.973215 1.044237 -0.588502 -3.964245 -0.090751 5.488123 1.530486 0.007429 -0.002567 -0.009388 -1.030669 -10.808106 -2.871402 0.711486 -0.121952 -4.943089 -2.301832 3.435887 0.895157 -0.007438 -0.032122 0.011135 
12.255474 6.243109 82.965790 -7.183652 -0.798106 -103.863333 2.803361 -2.669747 6.731467 1.287297 -1.143563 2.994520 1.287296 -1.143564 2.994522 0.971071 -0.851394 2.248238 -1.487173 -14.601283 6.281418 -0.380881 8.950943 11.222006 3.607144 5.131151 -10.698293 68.712400 -2.232837 46.123895 21.233059 -18.750674 57.099958 31.272014 -6.000108 -24.347080 -8.883406 1.913858 -21.951735 -60.379350 40.988440 -68.403737 -7.952540 15.650279 -41.816255 -36.662912 -14.314696 28.194382 -1.295288 -12.205700 -5.974637 1.043581 -0.579873 -3.981020 -0.092713 5.496971 1.517079 0.007477 0.001829 -0.008852 -1.029328 -10.805700 -2.873579 0.716517 -0.115014 -4.968622 -2.306531 3.442006 0.882909 -0.005030 -0.032071 0.010783 
12.269982 6.237115 82.964882 -7.171286 -0.792147 -103.825958 2.794315 -2.653682 6.739697 1.283155 -1.136758 2.997651 1.283155 -1.136759 2.997650 0.967939 -0.846303 2.250563 -1.459572 -14.606802 6.265787 -0.335553 8.939341 11.202986 3.558129 5.028826 -10.764976 68.568324 -2.355377 46.659826 18.544392 -20.101732 59.174239 31.276731 -6.930656 -24.569731 -8.819408 1.948071 -21.917490 -59.755133 40.986469 -68.159448 -6.680726 13.504131 -42.513392 -36.964342 -17.205515 29.619740 -1.287817 -12.208961 -5.982487 1.045776 -0.578954 -3.995886 -0.098307 5.508430 1.490794 0.007316 0.004697 -0.008644 -1.026158 -10.801399 -2.878984 0.721754 -0.112566 -4.983961 -2.310582 3.446868 0.865073 -0.002977 -0.031385 0.010749 
12.280686 6.231211 82.963928 -7.165334 -0.788131 -103.792272 2.787164 -2.647983 6.749936 1.279919 -1.134398 3.001937 1.279919 -1.134398 3.001936 0.965509 -0.844541 2.253766 -1.435718 -14.605989 6.249119 -0.297124 8.939854 11.180905 3.505740 4.921500 -10.821954 68.475433 -2.495371 47.171390 15.397162 -21.327389 61.493047 31.304663 -7.773782 -24.760230 -8.759957 2.025305 -21.873114 -59.150449 40.882555 -67.897230 -5.478195 11.614533 -43.262210 -36.969731 -19.965623 30.988230 -1.283765 -12.211681 -6.001336 1.049677 -0.586273 -3.998585 -0.103726 5.522341 1.479615 0.007655 0.005521 -0.007528 -1.024546 -10.799233 -2.887679 0.730592 -0.115101 -4.994811 -2.314817 3.453388 0.857528 -0.003259 -0.031604 0.009959 
